<svg xmlns="http://www.w3.org/2000/svg" xmlns:svg="http://www.w3.org/2000/svg" xmlns:xlink="http://www.w3.org/1999/xlink" id="Foreground" width="32" height="32" x="0" y="0" enable-background="new 0 0 16 16" version="1.0" viewBox="0 0 23.273 23.273" xml:space="preserve"><metadata id="metadata2399"/><defs id="defs2397"><linearGradient id="linearGradient3940"><stop id="stop3942" offset="0" stop-color="#f6f6f6" stop-opacity="1"/><stop id="stop3944" offset="1" stop-color="#fff" stop-opacity="1"/></linearGradient><linearGradient id="linearGradient3839"><stop id="stop3841" offset="0" stop-color="#2e2e2e" stop-opacity="1"/><stop id="stop3843" offset="1" stop-color="#565656" stop-opacity="1"/></linearGradient><linearGradient id="linearGradient3173"><stop id="stop3175" offset="0" stop-color="#ececec" stop-opacity="1"/><stop id="stop3177" offset="1" stop-color="#fff" stop-opacity="1"/></linearGradient><clipPath id="clipPath3811" clipPathUnits="userSpaceOnUse"><path id="path3813" fill="#a348b1" fill-opacity="1" stroke="none" stroke-width="2" d="M 16,4 C 9.3725829,4 4,9.3725831 4,16 4,22.627417 9.3725829,28 16,28 22.627417,28 28,22.627417 28,16 28,9.3725831 22.627417,4 16,4 Z m -4,8 1,0 c 0.276141,0 0.537786,0.100278 0.71875,0.28125 L 16,14.5625 18.28125,12.28125 C 18.462214,12.100279 18.723857,12 19,12 l 1,0 0,1 c 0.03655,0.27371 -0.100292,0.537781 -0.28125,0.71875 L 17.4375,16 19.71875,18.28125 C 19.899714,18.462221 20,18.72386 20,19 l 0,1 -1,0 c -0.276143,0 -0.537786,-0.100279 -0.71875,-0.28125 L 16,17.4375 13.71875,19.71875 C 13.537786,19.899719 13.276141,20 13,20 l -1,0 0,-1 c 0,-0.27614 0.100279,-0.537779 0.28125,-0.71875 L 14.5625,16 12.28125,13.71875 C 12.100286,13.537781 12,13.27614 12,13 l 0,-1 z" color="#000" display="inline" enable-background="new" overflow="visible" visibility="visible" style="marker:none"/></clipPath><linearGradient id="linearGradient3876" x1="4" x2="28" y1="16" y2="16" gradientUnits="userSpaceOnUse" xlink:href="#linearGradient3173"/><clipPath id="clipPath3782" clipPathUnits="userSpaceOnUse"><path id="path3784" fill="#000" fill-opacity="1" fill-rule="nonzero" stroke="none" stroke-width="2" d="m 0,8.7272733 c 0,4.8199397 3.9073336,8.7272717 8.7272734,8.7272717 4.8199406,0 8.7272716,-3.907332 8.7272716,-8.7272717 C 17.454545,3.9073352 13.547214,7e-7 8.7272734,7e-7 3.9073336,7e-7 0,3.9073352 0,8.7272733 Z" color="#000" display="inline" enable-background="new" opacity=".8" overflow="visible" visibility="visible" style="marker:none"/></clipPath></defs><path id="path5757" fill="#fff" fill-opacity="1" fill-rule="nonzero" stroke="none" stroke-dasharray="none" stroke-miterlimit="4" stroke-width="2" d="m 2.9090888,11.636364 c 0,4.81994 3.9073331,8.727271 8.7272712,8.727271 4.81994,0 8.72727,-3.907331 8.72727,-8.727271 0,-4.8199374 -3.90733,-8.7272712 -8.72727,-8.7272712 -4.8199381,0 -8.7272712,3.9073338 -8.7272712,8.7272712 z" color="#000" display="inline" enable-background="new" opacity="1" overflow="visible" visibility="visible" style="marker:none"/><g id="g3770" fill="none" transform="translate(-0.72727464,1.4545453)"><path id="path3772" fill="none" fill-opacity="1" fill-rule="nonzero" stroke="none" stroke-width="2" d="m 3.6363636,10.181818 c 0,4.81994 3.9073336,8.727272 8.7272734,8.727272 4.819941,0 8.727272,-3.907332 8.727272,-8.727272 0,-4.8199381 -3.907331,-8.7272726 -8.727272,-8.7272726 -4.8199398,0 -8.7272734,3.9073345 -8.7272734,8.7272726 z" color="#000" display="inline" enable-background="new" opacity=".8" overflow="visible" visibility="visible" style="marker:none"/><path id="path3774" fill="none" fill-opacity="1" fill-rule="nonzero" stroke="none" stroke-width="2" d="m 9.4545455,13.093068 0.7272725,0 c 0.200829,0 0.391114,-0.07293 0.522727,-0.204545 l 1.659092,-1.659091 1.65909,1.659091 c 0.131616,0.13161 0.321899,0.204545 0.522728,0.204545 l 0.727272,0 0,-0.727272 c 0,-0.200831 -0.07293,-0.391117 -0.204545,-0.522728 l -1.659091,-1.65909 1.659091,-1.6590912 c 0.131614,-0.13161 0.204545,-0.321897 0.204545,-0.522727 l 0,-0.7272726 -0.727272,0 c -0.200829,0 -0.391112,0.07293 -0.522728,0.2045455 l -1.65909,1.659091 -1.659092,-1.659091 C 10.572932,7.3478225 10.38088,7.248304 10.181818,7.2748872 l -0.7272725,0 0,0.7272726 c 0,0.20083 0.07293,0.391117 0.2045455,0.522727 l 1.659091,1.6590912 -1.659091,1.65909 c -0.1316153,0.131611 -0.2045455,0.321897 -0.2045455,0.522728 z" color="#000" display="inline" enable-background="new" overflow="visible" visibility="visible" style="marker:none"/></g><path id="path4165" fill="#373a41" fill-opacity="1" fill-rule="evenodd" stroke="none" stroke-dasharray="none" stroke-dashoffset="0" stroke-linecap="butt" stroke-linejoin="miter" stroke-miterlimit="4" stroke-opacity="1" stroke-width="2.75" d="m 8.7272676,8.0000156 c -0.401662,0 -0.727273,0.3256108 -0.727273,0.7272726 2.9e-5,0.1928735 0.07667,0.3778371 0.213068,0.5142043 l 2.3948864,2.3948865 -2.3877844,2.387783 -0.0071,0.0071 c -0.136369,0.13637 -0.213011,0.321334 -0.21304,0.514207 0,0.401662 0.325611,0.727273 0.727273,0.727273 0.192873,-2.9e-5 0.377837,-0.07667 0.514204,-0.213068 l 2.3948854,-2.394887 2.387784,2.387785 0.0071,0.0071 c 0.136343,0.136372 0.321306,0.213014 0.51418,0.213043 0.401662,0 0.727273,-0.325611 0.727273,-0.727273 -3e-5,-0.192873 -0.07667,-0.377837 -0.213069,-0.514204 l -2.394886,-2.394886 2.387784,-2.3877839 0.0071,-0.00713 c 0.136371,-0.1363425 0.213013,-0.3213061 0.213043,-0.5141796 0,-0.4016618 -0.325611,-0.7272727 -0.727273,-0.7272727 -0.192874,2.92e-5 -0.377837,0.076671 -0.514204,0.2130684 L 11.636387,10.60797 9.2486046,8.2201857 l -0.0071,-0.00713 c -0.1364,-0.1363689 -0.321364,-0.213011 -0.514237,-0.2130401 z" baseline-shift="baseline" clip-rule="nonzero" color="#000" color-interpolation="sRGB" color-interpolation-filters="linearRGB" color-rendering="auto" direction="ltr" display="inline" enable-background="accumulate" font-family="sans-serif" font-size="medium" font-stretch="normal" font-style="normal" font-variant="normal" font-weight="normal" image-rendering="auto" letter-spacing="normal" opacity="1" overflow="visible" shape-rendering="auto" text-anchor="start" text-decoration="none" text-rendering="auto" visibility="visible" word-spacing="normal" writing-mode="lr-tb" style="line-height:normal;text-indent:0;text-align:start;text-decoration-line:none;text-decoration-style:solid;text-decoration-color:#000;text-transform:none;block-progression:tb;white-space:normal;isolation:auto;mix-blend-mode:normal;solid-color:#000;solid-opacity:1"/><path id="path5757-8" fill="#373a41" fill-opacity="1" fill-rule="nonzero" stroke="none" stroke-dasharray="none" stroke-miterlimit="4" stroke-width="2" d="m 2.9275548,11.272726 c -0.00502,0.121565 -0.018466,0.240836 -0.018466,0.363636 0,4.81994 3.9073336,8.727272 8.7272722,8.727272 4.819939,0 8.727271,-3.907332 8.727271,-8.727272 0,-0.1228 -0.01344,-0.242071 -0.01847,-0.363636 -0.192131,4.649928 -4.011666,8.363635 -8.708805,8.363635 -4.6971385,0 -8.5166751,-3.713707 -8.7088063,-8.363635 z" color="#000" display="inline" enable-background="new" opacity="1" overflow="visible" visibility="visible" style="marker:none"/><path id="path5757-1" fill="#fff" fill-opacity="1" fill-rule="nonzero" stroke="none" stroke-dasharray="none" stroke-miterlimit="4" stroke-width="2" d="m 11.636361,2.9090899 c -4.8199383,0 -8.7272721,3.9073348 -8.7272721,8.7272721 0,0.1228 0.013443,0.24207 0.018466,0.363636 0.1921312,-4.6499252 4.0116678,-8.3636354 8.7088061,-8.3636354 4.697139,0 8.516674,3.7137102 8.708805,8.3636354 0.005,-0.121566 0.01847,-0.240836 0.01847,-0.363636 0,-4.8199373 -3.907332,-8.7272721 -8.727271,-8.7272721 z" color="#000" display="inline" enable-background="new" opacity=".3" overflow="visible" visibility="visible" style="marker:none"/></svg>