<svg xmlns="http://www.w3.org/2000/svg" xmlns:svg="http://www.w3.org/2000/svg" xmlns:xlink="http://www.w3.org/1999/xlink" id="svg5038" width="40" height="40" version="1.1"><defs id="defs5040"><linearGradient id="linearGradient5726" x1="806.395" x2="808" y1="1040.737" y2="1106.529" gradientTransform="matrix(0.04728153,0,0,0.52063887,144.29163,-314.78125)" gradientUnits="userSpaceOnUse" xlink:href="#linearGradient85841-7-0"/><linearGradient id="linearGradient85841-7-0"><stop id="stop85843-4-8" offset="0" stop-color="#242424" stop-opacity="1"/><stop id="stop85845-0-5" offset=".634" stop-color="#101010" stop-opacity="1"/><stop id="stop85847-7-3" offset="1" stop-color="#262626" stop-opacity="1"/></linearGradient></defs><metadata id="metadata5043"/><g id="layer1" transform="translate(0,-8)"><path id="path4681-0" fill="#fff" fill-opacity="1" fill-rule="nonzero" stroke="#373a41" stroke-dasharray="none" stroke-miterlimit="4" stroke-opacity="1" stroke-width="2" d="m 12,16 c -2.2159998,0 -4.0000002,1.784 -4.0000002,4 l 0,16 c 0,2.216 1.7840004,4 4.0000002,4 l 16,0 c 2.216,0 4,-1.784 4,-4 l 0,-16 c 0,-2.216 -1.784,-4 -4,-4 z" color="#000" display="inline" enable-background="new" overflow="visible" visibility="visible" style="marker:none"/><path id="path4681-0-3" fill="none" fill-opacity="1" fill-rule="nonzero" stroke="#373a41" stroke-dasharray="none" stroke-miterlimit="4" stroke-opacity="1" stroke-width="2" d="m 15.520352,21.280528 c -1.240862,0 -2.239824,0.998962 -2.239824,2.239824 l 0,8.959296 c 0,1.240862 0.998962,2.239824 2.239824,2.239824 l 8.959296,0 c 1.240862,0 2.239824,-0.998962 2.239824,-2.239824 l 0,-8.959296 c 0,-1.240862 -0.998962,-2.239824 -2.239824,-2.239824 z" color="#000" display="inline" enable-background="new" overflow="visible" visibility="visible" style="marker:none"/><path id="path4614" fill="#245dc4" fill-opacity="1" stroke="none" stroke-width="2" d="m 34.245273,13.656631 c -0.43776,0.0946 -0.841174,0.34106 -1.125,0.6875 l -12.5625,14.374999 -4.5,-4.5 c -0.752656,-0.75276 -2.122386,-0.7528 -2.87509,-10e-5 -0.752704,0.75272 -0.752662,2.12244 9e-5,2.8751 l 6,6 1.5625,1.5 1.375,-1.625 14.000002,-15.999999 c 1.134844,-1.23546 -0.231654,-3.6496 -1.875002,-3.3125 z" baseline-shift="baseline" color="#000" direction="ltr" display="inline" enable-background="accumulate" font-family="Sans" font-size="medium" font-stretch="normal" font-style="normal" font-variant="normal" font-weight="normal" letter-spacing="normal" overflow="visible" text-anchor="start" text-decoration="none" visibility="visible" word-spacing="normal" writing-mode="lr-tb" style="text-indent:0;text-align:start;line-height:normal;text-transform:none;block-progression:tb;marker:none;-inkscape-font-specification:Sans"/></g></svg>