<svg xmlns="http://www.w3.org/2000/svg" xmlns:svg="http://www.w3.org/2000/svg" id="svg7384" width="64" height="64" version="1.1" viewBox="0 0 64 64"><title id="title9167">Gnome Symbolic Icon Theme</title><metadata id="metadata90"/><path id="rect2999" fill="#fff" fill-opacity="1" fill-rule="nonzero" stroke="none" stroke-width="4.167" d="m 7,7 0,16.666667 16.666667,0 0,-16.666667 z m 33.333333,0 0,16.666667 16.666667,0 L 57,7 Z m -29.166666,4.166667 8.333333,0 0,8.333333 -8.333333,0 z m 33.333333,0 8.333333,0 0,8.333333 L 44.5,19.5 Z M 7,40.333333 7,57 l 16.666667,0 0,-16.666667 z m 33.333333,0 0,16.666667 L 57,57 57,40.333333 Z M 11.166667,44.5 19.5,44.5 l 0,8.333333 -8.333333,0 z m 33.333333,0 8.333333,0 0,8.333333 -8.333333,0 z" color="#bebebe" display="inline" enable-background="accumulate" opacity="1" overflow="visible" visibility="visible" style="marker:none"/></svg>